<svg xmlns="http://www.w3.org/2000/svg" viewBox="0 0 1280 720" width="1280" height="720">
 <defs>
  <linearGradient id="sky" x1="0" y1="0" x2="0" y2="1">
   <stop offset="0" stop-color="#07091a"/><stop offset="0.55" stop-color="#181242"/><stop offset="0.78" stop-color="#3d1b62"/><stop offset="1" stop-color="#14102e"/>
  </linearGradient>
  <linearGradient id="road" x1="0" y1="0" x2="0" y2="1">
   <stop offset="0" stop-color="#1c1440"/><stop offset="1" stop-color="#07060f"/>
  </linearGradient>
  <radialGradient id="horizon" cx="0.5" cy="0.62" r="0.42">
   <stop offset="0" stop-color="#ff4d9d" stop-opacity="0.55"/><stop offset="0.5" stop-color="#7c6cff" stop-opacity="0.22"/><stop offset="1" stop-color="#ff4d9d" stop-opacity="0"/>
  </radialGradient>
  <radialGradient id="vig" cx="0.5" cy="0.5" r="0.75">
   <stop offset="0.55" stop-color="#000" stop-opacity="0"/><stop offset="1" stop-color="#000" stop-opacity="0.55"/>
  </radialGradient>
  <pattern id="win1" width="26" height="34" patternUnits="userSpaceOnUse">
   <rect width="26" height="34" fill="none"/><rect x="6" y="8" width="8" height="12" rx="1" fill="#ffd28a" opacity="0.8"/>
  </pattern>
  <pattern id="win2" width="30" height="40" patternUnits="userSpaceOnUse">
   <rect width="30" height="40" fill="none"/><rect x="14" y="16" width="7" height="10" rx="1" fill="#8ad7ff" opacity="0.65"/>
  </pattern>
  <filter id="glow"><feGaussianBlur stdDeviation="18"/></filter>
  <filter id="glow2"><feGaussianBlur stdDeviation="7"/></filter>
  <filter id="grain">
   <feTurbulence type="fractalNoise" baseFrequency="0.9" numOctaves="2" result="n"/>
   <feColorMatrix in="n" type="matrix" values="0 0 0 0 1  0 0 0 0 1  0 0 0 0 1  0 0 0 0.05 0"/>
   <feComposite operator="over" in2="SourceGraphic"/>
  </filter>
 </defs>

 <rect width="1280" height="720" fill="url(#sky)"/>
 <ellipse cx="640" cy="450" rx="520" ry="300" fill="url(#horizon)"/>

 <!-- distant skyline -->
 <g fill="#0d0a24">
  <rect x="380" y="300" width="90" height="180"/><rect x="500" y="260" width="70" height="220"/>
  <rect x="600" y="290" width="110" height="190"/><rect x="740" y="250" width="80" height="230"/>
  <rect x="840" y="310" width="70" height="170"/>
 </g>
 <g fill="#0d0a24" opacity="0.85">
  <rect x="380" y="300" width="90" height="180" fill="url(#win2)"/>
  <rect x="600" y="290" width="110" height="190" fill="url(#win1)" opacity="0.6"/>
  <rect x="740" y="250" width="80" height="230" fill="url(#win2)" opacity="0.7"/>
 </g>

 <!-- left building wall -->
 <g>
  <polygon points="0,0 300,120 300,540 0,720" fill="#0a0820"/>
  <polygon points="0,0 300,120 300,540 0,720" fill="url(#win1)" opacity="0.5"/>
  <rect x="60" y="200" width="150" height="46" rx="8" fill="#ff4d9d" opacity="0.85" filter="url(#glow2)" transform="rotate(-6 135 223)"/>
  <rect x="90" y="330" width="110" height="30" rx="6" fill="#22d3ee" opacity="0.8" filter="url(#glow2)" transform="rotate(-6 145 345)"/>
  <rect x="40" y="440" width="80" height="26" rx="6" fill="#ffb454" opacity="0.7" filter="url(#glow2)" transform="rotate(-6 80 453)"/>
 </g>
 <!-- right building wall -->
 <g>
  <polygon points="1280,0 980,120 980,540 1280,720" fill="#0b0926"/>
  <polygon points="1280,0 980,120 980,540 1280,720" fill="url(#win2)" opacity="0.5"/>
  <rect x="1030" y="180" width="170" height="52" rx="8" fill="#7c6cff" opacity="0.9" filter="url(#glow2)" transform="rotate(5 1115 206)"/>
  <rect x="1080" y="320" width="120" height="30" rx="6" fill="#ff4d9d" opacity="0.75" filter="url(#glow2)" transform="rotate(5 1140 335)"/>
  <rect x="1010" y="430" width="90" height="26" rx="6" fill="#22d3ee" opacity="0.7" filter="url(#glow2)" transform="rotate(5 1055 443)"/>
 </g>

 <!-- street -->
 <polygon points="0,720 1280,720 980,480 300,480" fill="url(#road)"/>
 <!-- wet reflections -->
 <g opacity="0.5">
  <polygon points="560,480 590,480 520,720 440,720" fill="#ff4d9d" opacity="0.35" filter="url(#glow)"/>
  <polygon points="700,480 725,480 800,720 730,720" fill="#22d3ee" opacity="0.3" filter="url(#glow)"/>
  <polygon points="630,480 650,480 660,720 600,720" fill="#7c6cff" opacity="0.35" filter="url(#glow)"/>
 </g>
 <!-- lane lines -->
 <g fill="#e8e6ff" opacity="0.18">
  <polygon points="636,520 644,520 650,560 628,560"/>
  <polygon points="630,590 652,590 662,650 618,650"/>
 </g>

 <!-- walking figure, rim-lit -->
 <g transform="translate(640 470)">
  <ellipse cx="0" cy="118" rx="34" ry="7" fill="#000" opacity="0.5"/>
  <g fill="#04050e">
   <circle cx="0" cy="-64" r="11"/>
   <path d="M -13,-52 C -16,-30 -15,-6 -12,10 L -18,64 C -19,74 -14,80 -9,80 L -6,78 -4,26 2,26 10,76 C 11,82 18,82 19,74 L 12,8 C 15,-10 15,-34 12,-52 C 6,-58 -7,-58 -13,-52 Z"/>
  </g>
  <path d="M 12,-52 C 15,-34 15,-10 12,8 L 19,74" stroke="#ff8ac2" stroke-width="2.5" fill="none" opacity="0.9"/>
  <path d="M -13,-52 C -16,-30 -15,-6 -12,10" stroke="#7ee7ff" stroke-width="2" fill="none" opacity="0.7"/>
  <circle cx="0" cy="-64" r="11" fill="none" stroke="#ff8ac2" stroke-width="2" stroke-dasharray="10 26" opacity="0.9"/>
 </g>

 <!-- rain -->
 <g stroke="#cfe6ff" stroke-width="1.4" opacity="0.10">
  <line x1="120" y1="20" x2="90" y2="160"/><line x1="330" y1="-10" x2="300" y2="130"/>
  <line x1="560" y1="40" x2="530" y2="180"/><line x1="760" y1="-20" x2="730" y2="120"/>
  <line x1="960" y1="30" x2="930" y2="170"/><line x1="1160" y1="0" x2="1130" y2="140"/>
  <line x1="220" y1="240" x2="190" y2="380"/><line x1="1040" y1="260" x2="1010" y2="400"/>
  <line x1="450" y1="200" x2="420" y2="340"/><line x1="880" y1="210" x2="850" y2="350"/>
 </g>

 <rect width="1280" height="720" fill="url(#vig)"/>
 <rect width="1280" height="720" fill="#fff" opacity="0.03" filter="url(#grain)"/>
</svg>
